<?xml version="1.0" encoding="utf-8"?><svg xmlns="http://www.w3.org/2000/svg" xmlns:xlink="http://www.w3.org/1999/xlink"><symbol viewBox="0 0 44.46 39.21" id="beef" xmlns="http://www.w3.org/2000/svg"><path d="M40.158 13.595c-.365-.693-.732-1.389-1.098-2.089 1.488-1.032 2.652-2.173 3.48-3.356-.433-.464-.864-.93-1.296-1.394l.212-.202 1.216 1.399c1.569-2.361 1.788-4.88.437-7.056l-.281-.451-.873.918c-.351.37-.687.726-1.032 1.072-.261.26-.522.504-.784.74-.006.053-.018.097-.041.119a.99.99 0 01-.342.211c-3.408 2.896-7.048 3.787-11.621 2.893-1.215-.237-2.563-.353-4.123-.353-1.438 0-2.914.096-4.341.189-1.389.09-2.825.184-4.216.188-.358 0-.723.011-1.089.02.013.042.031.082.043.124.044.155-.03.438-.148.519-.115.078-.417.038-.532-.066a2.444 2.444 0 01-.468-.557c-.076 0-.152.004-.228.004-.968 0-2.089-.051-3.072-.435-.933-.364-1.826-.877-2.698-1.436a1.02 1.02 0 00.212-.375c.046-.148-.038-.471-.137-.507-.242-.086-.644.057-.985.284a122.28 122.28 0 01-.84-.577c-.438-.304-.88-.6-1.322-.895a.943.943 0 01-.402.256c-.307.095-.62.171-1.09.298.172-.476.311-.88.453-1.262-.23-.165-.477-.349-.767-.565-.306-.228-.657-.49-1.081-.799L.682 0 .651.77C.453 5.66 2.096 9.035 5.814 11.351c-.349.453-.701.882-1.042 1.299-.914 1.115-1.776 2.168-2.342 3.377C.927 19.237.278 20.868.82 21.944c.498.988 1.82 1.257 4.221 1.744.381.077.792.16 1.23.253 1.222.257 1.723.563 2.107 1.772 1.494 4.707 4.339 8.592 8.457 11.545 1.806 1.296 3.62 1.953 5.392 1.953 1.625 0 3.15-.564 4.542-1.665-.257-.102-.514-.212-.77-.276-.171-.043-.166-.771-.258-1.268.752.161 1.303.28 1.902.407.051.077.107.167.167.26.274-.238.547-.48.818-.725l-.323 1.245c.49-.225 1.039-.475 1.59-.729-.138-.481-.437-.819-.789-.956 2.003-1.851 3.842-3.873 5.003-6.181 1.035-2.056 1.94-3.844 3.43-4.967l.095.029-.056-.06c.937-.694 2.104-1.127 3.679-1.198 1.229-.056 1.798-.595 2.059-1.037.412-.699.358-1.653-.154-2.684a282.635 282.635 0 00-3.004-5.811zM3.724 5.456l6.922 3.803c-.125.04-.243.08-.357.118-.64.212-1.106.376-1.496.305-2.445-.436-4.077-1.788-5.069-4.226zm2.39 7.127l.884.806-1.526.139.642-.945zm-2.953 8.232c.678-2.413 1.51-4.372 2.934-5.935-.162.337-.303.646-.08 1.046.21.379.305.82.48 1.221.049.113.228.271.299.249.133-.041.317-.187.332-.306.112-.924-.211-1.724-.715-2.549a9.805 9.805 0 011.72-1.365l-.43 4.689c.27-.183.66-.253 1.188-.194-.57.348-.567 1.261-1.291 1.326l-.248 2.694-4.189-.876zm4.56.139c.599-.104 1.03-.203 1.464-.223.057-.003.256.514.178.6-.248.276-.596.463-.955.719l-.687-1.096zm20.007 12.871c.107-.262.183-.543.195-.792.052-.977.052-.977-.669-2.022.054.544.146 1.083.322 1.596.151.441-.007.938-.434 1.073-.395.128-.784.721-.632 1.067l.033.063c-.202.158-.399.318-.609.475-1.395 1.038-2.583 1.521-3.738 1.521-1.04 0-2.127-.381-3.468-1.217h-.406l-.047-.244.057-.014c-.041-.026-.079-.049-.121-.077a18.42 18.42 0 01-3.252-2.811c.103.035.198.067.293.096.392.118.764-.164.636-.521-.309-.854.095-1.402.79-1.938-.427-.293-.689-.273-.828.232a5.574 5.574 0 01-.314.83c-.281.624-.72.681-1.18.164l-.228-.261c-.088.035-.183.058-.265.083a19.505 19.505 0 01-3.048-5.826c.405.182.844.089 1.275.061l.028-.258c-.463-.03-.925-.061-1.387-.089a3.355 3.355 0 01-.003.031c-1.01-3.261-1.178-6.786-.349-10.179-.78-.028-1.563-.029-2.342-.177.787 0 1.575.033 2.358-.009l.027-.002c.025-.099.041-.199.068-.297.292-1.064.769-2.245 1.539-3.248l-.628-3.297.29-.136c.135.261.256.531.407.782.144.238.318.458.479.685.227-.213.502-.394.667-.647.171-.263.236-.595.394-1.025l.579 1.295c-.397.339-.427.552-.314.718a5.877 5.877 0 012.006-.653 51.652 51.652 0 017.094-.499c1.411 0 2.811.063 4.164.185a7.555 7.555 0 013.028.924c-.034.165.07.344.333.773.104-.195.18-.339.229-.455 1.664 1.153 2.767 3.057 3.199 5.604.168.986.239 1.988.303 2.872.026.365.05.705.077.973.011 5.853-2.158 10.644-6.608 14.591zM33.852 9.41l7.091-3.355c-.688 1.948-2.111 3.153-4.33 3.672l-.395.096c-.438.111-.891.226-1.279.226-.365-.001-.768-.085-1.087-.639zm3.452 12.889l-.148-.443c.804-.231 1.606-.464 2.41-.696.039.119.078.237.119.355l-2.381.784zm-.34-.551l-.854-8.54a8.797 8.797 0 012.442 2.104c-.039-.662.475-.591.986-.422.047 1.605.047 1.605.5 1.704l-.26.68c.496 1.024.891 2.184 1.254 3.494l-4.068.98z"/><path d="M19.406 4.425c.239.177.443.399.664.602.168-.227.336-.455.442-.596l-2.377-3.129a15.71 15.71 0 01-.207.053c.014.204-.054.483.054.598.671.714.589 1.856 1.424 2.472zm-8.431 30.353c-.079.35-.201.688-.216 1.029-.01.23.13.469.203.702.145-.147.29-.292.446-.452l1.154 1.082c-.2-1.018-.584-1.881-1.587-2.361zM33.199 5.524c-.323-.064-.643-.155-.969-.185-.267-.024-.518.027-.512-.379.006-.405-.244-.428-.568-.32-.555.186-.789.514-.533 1.168.826-.873 1.668.101 2.582-.284zM22.787 9.299c-.089-.125-.319-.184-.492-.201-.069-.007-.187.168-.233.281-.148.363-.273.736-.443 1.207.332-.09.551-.143.767-.21.423-.13.658-.713.401-1.077zm6.408 2.069c-.457.949-.384 1.467.188 1.991.08.073.293.102.374.047.083-.057.136-.256.104-.366-.086-.303-.221-.591-.338-.885-.087-.212-.176-.422-.328-.787zm-.881 26.506c-.457.373-.378.809.156 1.048.336-.492.67-.985 1.004-1.479l-.154-.13c-.338.182-.713.322-1.006.561zm6.492-6.475c.163.148.33.422.488.416.205-.006.403-.232.747-.459-.3-.262-.544-.557-.616-.52-.239.122-.417.366-.619.563zM30.24 5.152l-1.563-1.287c-.029.682.948 1.489 1.563 1.287zm7.374 16.408l.41-1.77c-.62.273-.854 1.093-.41 1.77zM23.386 34.294h-1.873c.384.498 1.017.49 1.873 0zm-3.971-7.686c.106.228.214.451.314.68.094.213.179.433.269.649.199-1.045 0-1.43-.583-1.329zm1.323 8.736c-.03-.013-.193.163-.202.259-.007.072.127.178.22.23.209.119.432.215.741.366 0-.161.061-.384-.011-.443-.22-.176-.486-.3-.748-.412zM8.55 31.523l.127-.14-1.004-.924c-.102.935.384 1.003.877 1.064zm8.845-20.786c.061-.061.026-.347-.032-.371-.146-.059-.35-.079-.491-.02-.181.078-.323.248-.475.373.178.074.356.196.541.208a.672.672 0 00.457-.19zm20.702 18.922l.248.256.73-.977c-.62-.113-.902.124-.978.721zM0 6.143l.669.8c.115-.728-.033-.881-.669-.8zm34.19 25.922l.269.99c.063-.015.127-.031.189-.048.16-.387.057-.717-.458-.942zM19.35 14.179l-.999-1.148-.148.143 1.036 1.116.111-.111zm9.314-8.415c.111-.165.252-.318.315-.499.024-.07-.127-.202-.284-.43-.148.304-.271.472-.301.656-.014.073.174.181.27.273z"/><ellipse cx="18.219" cy="20.872" rx="2.027" ry="1.834"/><path d="M29.324 20.224c-.111-.207-.209-.438-.41-.638a2.23 2.23 0 00-.678-.565c-.26-.166-.593-.267-.908-.321a2.784 2.784 0 00-.945.027c-.288.07-.566.164-.791.301a2.798 2.798 0 00-1.012.929c-.227.314-.338.64-.396.868-.042.223-.039.361-.039.361l.345-.111.784-.209c.309-.073.642-.152.951-.187.156-.03.302-.021.438-.036.134.011.258.006.369.033.115.016.223.037.34.08a.808.808 0 00.182.057c.06.035.119.073.187.102.138.047.261.158.398.236.144.072.268.186.399.275.12.099.264.176.367.27.104.09.215.164.303.229.182.126.306.198.306.198s.034-.13.06-.356c.017-.226.054-.558-.051-.932-.049-.189-.08-.405-.199-.611z"/></symbol><symbol viewBox="0 0 48 30.32" id="buns" xmlns="http://www.w3.org/2000/svg"><path d="M20.475 5.926l.494.482c.582.569 1.246.883 1.869.883a1.63 1.63 0 001.36-.702c.25-.359.204-.811.155-1.048-.075-.361-.247-.635-.498-.79-.427-.265-.852-.399-1.263-.399-.448 0-1.089.167-1.652.916.185-.029.37-.062.552-.079l.042.273-.78.062-.279.402zm-7.481 3.139l-.699-.837-.605.908c-.037.054-.087.112-.136.171-.243.292-.61.734-.387 1.289.173.429.431.801.659 1.129.079.114.158.227.233.342l.342.448 1.325-.239.16-.444c.019-.052.049-.109.078-.167.142-.29.381-.774.1-1.253-.23-.394-.516-.716-.792-1.028a11.97 11.97 0 01-.278-.319zm18.189 1.217l2.492-2.583-.654-.563c-.055-.048-.119-.113-.184-.176-.295-.291-.55-.541-.949-.541l-.238.003-.191.113c-.535.314-.982.715-1.385 1.099-.557.527-.113 1.083.21 1.488.097.122.21.263.323.41l.576.75zM16.737 8.547c.315 0 .521-.147.861-.392.122-.087.269-.193.436-.302l.986-.647-1.403-1.027a19.486 19.486 0 00-.838-.599 7.096 7.096 0 01-1.084-.101c.311 0 .622.004.933.005-.068-.042-.135-.085-.205-.126l-.2-.113h-.219c-.404 0-.64.251-.913.543-.055.058-.109.118-.155.162l-.606.575.866.875c.076.078.157.157.235.236.182-.143.458-.196.838-.154-.206.125-.301.359-.419.557.116.107.229.216.353.318l.242.19h.292z"/><path d="M6.683 12.869c-.062.327-.124.659-.197.995l-.35 1.597h4.374l.22.533.102-.533H28.01a1.053 1.053 0 00-.151.44c.08.081.159.162.238.246l.512-.686h15.08l-.114-1.772a9.156 9.156 0 00-.054-.694c-.437-3.416-2.178-6.204-5.325-8.523-3.564-2.625-8.234-4.07-13.149-4.07-1.776 0-3.563.2-5.313.594l-.582.157.113.256a.8.8 0 00-.159.505c.01.18.083.318.174.425l-.053.021.108.43c.018.069.042.141.068.213l.019.054-.186-.35-.25.065c.009.197-.011.41-.005.609.154-.045.313-.08.47-.119l.007.506.608-.145a21.647 21.647 0 016.481-.54l-.813.767 1.225 1.255c.315.33.643.671 1.038 1l.382.3h.466c.463 0 .771-.212 1.154-.474.115-.079.252-.172.406-.269l1.632-1.016-1.057-.791c2.099.605 4.022 1.534 5.653 2.735.16.118.304.24.454.36-.555.152-1.062.897-1.065.905l-.234.448.268.407c.268.403.568.764.859 1.113l.741.899.048-.039c-.192-.484-.326-1.001-.691-1.389-.103-.11-.038-.377-.051-.571l.197-.051 1.15 1.514 1.051-.864a8.899 8.899 0 011.47 3.506h-5.209c.072-.056.143-.112.208-.166.076-.062.151-.126.227-.176l.931-.611-2.454-1.999-2.379 2.061.992.573c.089.052.178.116.268.179.063.045.133.092.203.139h-7.494l1.725-2.227-1.203-1.258a1.215 1.215 0 01-.061.294c-.059.187.255.502.415.746.089.137.216.249.419.477-.878-.263-.936-.307-1.246-.976-.193-.416-.376-.838-.562-1.258l-.422.644c-.051.078-.117.156-.182.234-.246.301-.583.713-.545 1.253.037.516.355.891.612 1.192.069.083.142.164.198.247l.441.633H18.77l.864-.85c.323-.313.658-.637.963-1.005.428-.517.068-1.023-.194-1.393-.088-.125-.195-.274-.306-.445l-.644-.993-.699.955-.343.463c-.327.437-.584.783-.811 1.176-.343.596.133 1.057.418 1.332.057.055.114.109.156.156l.552.604h-9.36c.103-.527.214-1.026.374-1.48.704-1.993 2.073-3.627 4.309-5.145.655-.444 1.36-.847 2.111-1.207l.01-.001-.003-.003a19.35 19.35 0 012.453-.968l.422-.135-.495-2.6-.534.166c-2.018.624-3.849 1.488-5.442 2.57a17.624 17.624 0 00-1.994 1.572l-.202.253.055.276c.004.059.012.114.021.166l-.311-.274c-1.189 1.183-2.044 2.46-2.634 3.869l-1.423.409.1.299 1.19-.392c-.035.091-.081.177-.113.27-.277.786-.427 1.589-.577 2.395zm18.633-.945c.099-.485 1.085-1.1 1.519-.943.096.034.176.342.133.485-.154.505-.691.831-1.484.875-.046-.105-.196-.279-.168-.417z"/><path d="M18.757 1.756l-.009.003.002.004zm25.115 27.825l.463.736c.242-.171.476-.297.643-.482.053-.059-.082-.405-.12-.404-.293.013-.584.079-.986.15zm.786-9.351c-.769-.087-1.122.218-1.101.876.728.15.665-.609 1.101-.876zm-10.184 2.815c.032.1.066.199.099.298l1.603-.528-.08-.237c-.542.154-1.083.311-1.622.467zm1.479-5.722c-.173.074-.309.236-.454.356.17.069.34.187.517.198a.637.637 0 00.437-.182c.059-.059.025-.332-.03-.355-.14-.056-.336-.075-.47-.017zm-8.577 3.881l-.493 1.176c.676.088.566-.543.772-.861.022-.036-.191-.219-.279-.315zm2.183-10.63c.022.192.144.394.276.545.07.08.254.059.387.083.014-.162.013-.326.045-.483.047-.224.117-.442.184-.68h-.711c-.073.195-.2.374-.181.535zm-2.162-2.418l.392-1.692c-.593.261-.815 1.045-.392 1.692zm-11.451 2.273c.242-.172.476-.297.643-.483.053-.059-.082-.406-.12-.404-.292.013-.583.08-.985.15l.462.737zm13.143-1.602c-.488-.455-.678-.467-1.246-.099l.268.51.978-.411zM0 11.548l.013.178c.25.167.501.332.95.629-.035-.377-.011-.775-.087-.794-.274-.074-.582-.019-.876-.013zm9.129 4.622a2.18 2.18 0 01-.051-.047c-.002.018 0 .031-.002.047h.053zm-7.464-4.476c.416.248.875.128 1.324.099l.027-.247c-.442-.029-.885-.056-1.327-.084l-.024.232zm27.026 6.232v-1.268c-.078.003-.156.006-.235.011l.094 1.285.141-.028zM9.933 1.098L8.978 0l-.143.136.992 1.067.106-.105zm36.638 3.344v.676l1.326.282.103-.31-1.429-.648z"/><path d="M43.439 19.361l-.075-1.169h-1.171c-.299 0-.599.01-.973.021-.601.019-1.198.024-1.649-.029a12.298 12.298 0 00-1.469-.093c-.421 0-.82.033-1.207.086h-7.406a9.105 9.105 0 00-.397-.009l-1.567.009h-.071l-1.64.01v.002h-.35c-1.891.008-3.956.011-6.364.011l-12.334-.008-.051 1.195c-.108 2.549.884 5.131 2.723 7.084 1.844 1.958 4.374 3.107 6.941 3.152a527.698 527.698 0 0017.227.025c2.682-.04 5.315-1.249 7.225-3.316 1.311-1.418 2.185-3.176 2.492-4.994l.043.039.082-1.008-.013.001a7.93 7.93 0 00.004-1.009zm-17.408-.593c.062.164.095.317.126.472a3.532 3.532 0 00-.209-.471.402.402 0 01-.051-.169l-.01-.219.144.387zm12.966 5.87c-1.447 1.567-3.426 2.483-5.429 2.514-5.604.085-11.427.077-17.145-.025-1.899-.034-3.783-.896-5.167-2.367-1.085-1.153-1.781-2.583-1.987-4.069l9.831.006c2.408 0 4.464-.004 6.353-.012v.002l.477-.003.176-.001.959.006-.01-.012 2.107-.012c.25 0 .469.02.773.07h6.76l.095-.011c.641-.144 1.363-.166 2.197-.087l.631.056c.381.028.824.038 1.285.027-.189 1.405-.856 2.78-1.906 3.918z"/></symbol></svg>